<svg xmlns="http://www.w3.org/2000/svg" viewBox="0 0 64 64" width="64" height="64" role="img" aria-label="Talos">
  <title>Talos</title>
  <defs>
    <linearGradient id="ai-bronze" x1="32" y1="4" x2="32" y2="60" gradientUnits="userSpaceOnUse">
      <stop offset="0" stop-color="#E7BC7C"/><stop offset=".45" stop-color="#C08A47"/><stop offset="1" stop-color="#9A6A2C"/>
    </linearGradient>
    <linearGradient id="ai-ridge" x1="32" y1="16" x2="32" y2="44" gradientUnits="userSpaceOnUse">
      <stop offset="0" stop-color="#EEC78B"/><stop offset="1" stop-color="#D4A264"/>
    </linearGradient>
    <linearGradient id="ai-amber" x1="32" y1="26" x2="32" y2="34" gradientUnits="userSpaceOnUse">
      <stop offset="0" stop-color="#FFD692"/><stop offset="1" stop-color="#E49726"/>
    </linearGradient>
    <linearGradient id="ai-plate" x1="32" y1="0" x2="32" y2="64" gradientUnits="userSpaceOnUse">
      <stop offset="0" stop-color="#1C2320"/><stop offset="1" stop-color="#080A09"/>
    </linearGradient>
  </defs>
  <rect width="64" height="64" rx="14" fill="url(#ai-plate)"/>
  <g transform="translate(8.96 10.16) scale(0.72)">
    <path fill="url(#ai-bronze)" d="M24 4h16l16 8v20l-4 12-8 12-8 4h-8l-8-4-8-12-4-12V12Z"/>
    <path fill="#A5732F" d="M27 21h10v21l-5 5-5-5Z"/>
    <path fill="url(#ai-ridge)" d="M15.5 16.5h33L50 18v2.5L48.5 22H35v18l-3 3.5-3-3.5V22H15.5L14 20.5V18Z"/>
    <path fill="#0A0C0B" d="M11 22.5 27 26.5v8L12 35.5Z"/>
    <path fill="#0A0C0B" d="M53 22.5 37 26.5v8l15 1Z"/>
    <rect x="-5.25" y="-2.8" width="10.5" height="5.6" rx="2" fill="url(#ai-amber)" transform="translate(19 29.6) rotate(12)"/>
    <rect x="-5.25" y="-2.8" width="10.5" height="5.6" rx="2" fill="url(#ai-amber)" transform="translate(45 29.6) rotate(-12)"/>
    <path fill="#0A0C0B" d="M25.4 47h13.2a1.4 1.4 0 0 1 1.4 1.4v.8a1.4 1.4 0 0 1-1.4 1.4H25.4a1.4 1.4 0 0 1-1.4-1.4v-.8A1.4 1.4 0 0 1 25.4 47Z"/>
  </g>
</svg>
